<svg version="1.1" xmlns="http://www.w3.org/2000/svg" width="105em" height="25em" viewBox="-20 -20 1460 310">
	<polyline style="stroke:black; stroke-width:1; fill:none;" points="20,251 20,251" />
	<polyline style="stroke:black; stroke-width:1; fill:none;" points="20,251 20,247" />
	<polyline style="stroke:black; stroke-width:1; fill:none;" points="60,251 60,251" />
	<polyline style="stroke:black; stroke-width:1; fill:none;" points="60,251 60,247" />
	<polyline style="stroke:black; stroke-width:1; fill:none;" points="100,251 100,251" />
	<polyline style="stroke:black; stroke-width:1; fill:none;" points="100,251 100,247" />
	<polyline style="stroke:black; stroke-width:1; fill:none;" points="180,251 180,251" />
	<polyline style="stroke:black; stroke-width:1; fill:none;" points="180,251 180,247" />
	<polyline style="stroke:black; stroke-width:1; fill:none;" points="220,251 220,251" />
	<polyline style="stroke:black; stroke-width:1; fill:none;" points="220,251 220,247" />
	<polyline style="stroke:black; stroke-width:1; fill:none;" points="260,251 260,251" />
	<polyline style="stroke:black; stroke-width:1; fill:none;" points="260,251 260,247" />
	<polyline style="stroke:black; stroke-width:1; fill:none;" points="300,251 300,251" />
	<polyline style="stroke:black; stroke-width:1; fill:none;" points="300,251 300,247" />
	<polyline style="stroke:black; stroke-width:1; fill:none;" points="340,251 340,251" />
	<polyline style="stroke:black; stroke-width:1; fill:none;" points="340,251 340,247" />
	<polyline style="stroke:black; stroke-width:1; fill:none;" points="380,251 380,251" />
	<polyline style="stroke:black; stroke-width:1; fill:none;" points="380,251 380,247" />
	<polyline style="stroke:black; stroke-width:1; fill:none;" points="420,251 420,251" />
	<polyline style="stroke:black; stroke-width:1; fill:none;" points="420,251 420,247" />
	<polyline style="stroke:black; stroke-width:1; fill:none;" points="460,251 460,251" />
	<polyline style="stroke:black; stroke-width:1; fill:none;" points="460,251 460,247" />
	<polyline style="stroke:black; stroke-width:1; fill:none;" points="500,251 500,251" />
	<polyline style="stroke:black; stroke-width:1; fill:none;" points="500,251 500,247" />
	<polyline style="stroke:black; stroke-width:1; fill:none;" points="580,251 580,251" />
	<polyline style="stroke:black; stroke-width:1; fill:none;" points="580,251 580,247" />
	<polyline style="stroke:black; stroke-width:1; fill:none;" points="660,251 660,251" />
	<polyline style="stroke:black; stroke-width:1; fill:none;" points="660,251 660,247" />
	<polyline style="stroke:black; stroke-width:1; fill:none;" points="740,251 740,251" />
	<polyline style="stroke:black; stroke-width:1; fill:none;" points="740,251 740,247" />
	<polyline style="stroke:black; stroke-width:1; fill:none;" points="780,251 780,251" />
	<polyline style="stroke:black; stroke-width:1; fill:none;" points="780,251 780,247" />
	<polyline style="stroke:black; stroke-width:1; fill:none;" points="820,251 820,251" />
	<polyline style="stroke:black; stroke-width:1; fill:none;" points="820,251 820,247" />
	<polyline style="stroke:black; stroke-width:1; fill:none;" points="900,251 900,251" />
	<polyline style="stroke:black; stroke-width:1; fill:none;" points="900,251 900,247" />
	<polyline style="stroke:black; stroke-width:1; fill:none;" points="940,251 940,251" />
	<polyline style="stroke:black; stroke-width:1; fill:none;" points="940,251 940,247" />
	<polyline style="stroke:black; stroke-width:1; fill:none;" points="980,251 980,251" />
	<polyline style="stroke:black; stroke-width:1; fill:none;" points="980,251 980,247" />
	<polyline style="stroke:black; stroke-width:1; fill:none;" points="1020,251 1020,251" />
	<polyline style="stroke:black; stroke-width:1; fill:none;" points="1020,251 1020,247" />
	<polyline style="stroke:black; stroke-width:1; fill:none;" points="1060,251 1060,251" />
	<polyline style="stroke:black; stroke-width:1; fill:none;" points="1060,251 1060,247" />
	<polyline style="stroke:black; stroke-width:1; fill:none;" points="1140,251 1140,251" />
	<polyline style="stroke:black; stroke-width:1; fill:none;" points="1140,251 1140,247" />
	<polyline style="stroke:black; stroke-width:1; fill:none;" points="1180,251 1180,251" />
	<polyline style="stroke:black; stroke-width:1; fill:none;" points="1180,251 1180,247" />
	<polyline style="stroke:black; stroke-width:1; fill:none;" points="1220,251 1220,251" />
	<polyline style="stroke:black; stroke-width:1; fill:none;" points="1220,251 1220,247" />
	<polyline style="stroke:black; stroke-width:1; fill:none;" points="1260,251 1260,251" />
	<polyline style="stroke:black; stroke-width:1; fill:none;" points="1260,251 1260,247" />
	<polyline style="stroke:black; stroke-width:1; fill:none;" points="1300,251 1300,251" />
	<polyline style="stroke:black; stroke-width:1; fill:none;" points="1300,251 1300,247" />
	<polyline style="stroke:black; stroke-width:1; fill:none;" points="1340,251 1340,251" />
	<polyline style="stroke:black; stroke-width:1; fill:none;" points="1340,251 1340,247" />
	<polyline style="stroke:black; stroke-width:1; fill:none;" points="1420,251 1420,251" />
	<polyline style="stroke:black; stroke-width:1; fill:none;" points="1420,251 1420,247" />
	<polyline style="stroke:black; stroke-width:1; fill:none;" points="20,226 20,226" />
	<polyline style="stroke:black; stroke-width:1; fill:none;" points="20,226 20,222" />
	<polyline style="stroke:black; stroke-width:1; fill:none;" points="100,226 100,226" />
	<polyline style="stroke:black; stroke-width:1; fill:none;" points="100,226 100,222" />
	<polyline style="stroke:black; stroke-width:1; fill:none;" points="180,226 180,226" />
	<polyline style="stroke:black; stroke-width:1; fill:none;" points="180,226 180,222" />
	<polyline style="stroke:black; stroke-width:1; fill:none;" points="260,226 260,226" />
	<polyline style="stroke:black; stroke-width:1; fill:none;" points="260,226 260,222" />
	<polyline style="stroke:black; stroke-width:1; fill:none;" points="380,226 380,226" />
	<polyline style="stroke:black; stroke-width:1; fill:none;" points="380,226 380,222" />
	<polyline style="stroke:black; stroke-width:1; fill:none;" points="660,226 660,226" />
	<polyline style="stroke:black; stroke-width:1; fill:none;" points="660,226 660,222" />
	<polyline style="stroke:black; stroke-width:1; fill:none;" points="740,226 740,226" />
	<polyline style="stroke:black; stroke-width:1; fill:none;" points="740,226 740,222" />
	<polyline style="stroke:black; stroke-width:1; fill:none;" points="820,226 820,226" />
	<polyline style="stroke:black; stroke-width:1; fill:none;" points="820,226 820,222" />
	<polyline style="stroke:black; stroke-width:1; fill:none;" points="900,226 900,226" />
	<polyline style="stroke:black; stroke-width:1; fill:none;" points="900,226 900,222" />
	<polyline style="stroke:black; stroke-width:1; fill:none;" points="1020,226 1020,226" />
	<polyline style="stroke:black; stroke-width:1; fill:none;" points="1020,226 1020,222" />
	<polyline style="stroke:black; stroke-width:1; fill:none;" points="1180,226 1180,226" />
	<polyline style="stroke:black; stroke-width:1; fill:none;" points="1180,226 1180,222" />
	<polyline style="stroke:black; stroke-width:1; fill:none;" points="1300,226 1300,226" />
	<polyline style="stroke:black; stroke-width:1; fill:none;" points="1300,226 1300,222" />
	<polyline style="stroke:black; stroke-width:1; fill:none;" points="500,226 580,226" />
	<polyline style="stroke:black; stroke-width:1; fill:none;" points="540,226 540,222" />
	<polyline style="stroke:black; stroke-width:1; fill:none;" points="1060,226 1140,226" />
	<polyline style="stroke:black; stroke-width:1; fill:none;" points="1100,226 1100,222" />
	<polyline style="stroke:black; stroke-width:1; fill:none;" points="1340,226 1420,226" />
	<polyline style="stroke:black; stroke-width:1; fill:none;" points="1380,226 1380,222" />
	<polyline style="stroke:black; stroke-width:1; fill:none;" points="100,201 180,201" />
	<polyline style="stroke:black; stroke-width:1; fill:none;" points="140,201 140,197" />
	<polyline style="stroke:black; stroke-width:1; fill:none;" points="540,201 540,201" />
	<polyline style="stroke:black; stroke-width:1; fill:none;" points="540,201 540,197" />
	<polyline style="stroke:black; stroke-width:1; fill:none;" points="660,201 740,201" />
	<polyline style="stroke:black; stroke-width:1; fill:none;" points="700,201 700,197" />
	<polyline style="stroke:black; stroke-width:1; fill:none;" points="820,201 900,201" />
	<polyline style="stroke:black; stroke-width:1; fill:none;" points="860,201 860,197" />
	<polyline style="stroke:black; stroke-width:1; fill:none;" points="1100,201 1100,201" />
	<polyline style="stroke:black; stroke-width:1; fill:none;" points="1100,201 1100,197" />
	<polyline style="stroke:black; stroke-width:1; fill:none;" points="1260,201 1380,201" />
	<polyline style="stroke:black; stroke-width:1; fill:none;" points="1300,201 1300,197" />
	<polyline style="stroke:black; stroke-width:1; fill:none;" points="140,176 220,176" />
	<polyline style="stroke:black; stroke-width:1; fill:none;" points="180,176 180,172" />
	<polyline style="stroke:black; stroke-width:1; fill:none;" points="540,176 700,176" />
	<polyline style="stroke:black; stroke-width:1; fill:none;" points="620,176 620,172" />
	<polyline style="stroke:black; stroke-width:1; fill:none;" points="780,176 940,176" />
	<polyline style="stroke:black; stroke-width:1; fill:none;" points="820,176 820,172" />
	<polyline style="stroke:black; stroke-width:1; fill:none;" points="1300,176 1300,176" />
	<polyline style="stroke:black; stroke-width:1; fill:none;" points="1300,176 1300,172" />
	<polyline style="stroke:black; stroke-width:1; fill:none;" points="460,151 620,151" />
	<polyline style="stroke:black; stroke-width:1; fill:none;" points="580,151 580,147" />
	<polyline style="stroke:black; stroke-width:1; fill:none;" points="1220,151 1300,151" />
	<polyline style="stroke:black; stroke-width:1; fill:none;" points="1260,151 1260,147" />
	<polyline style="stroke:black; stroke-width:1; fill:none;" points="1180,126 1260,126" />
	<polyline style="stroke:black; stroke-width:1; fill:none;" points="1220,126 1220,122" />
	<polyline style="stroke:black; stroke-width:1; fill:none;" points="300,126 580,126" />
	<polyline style="stroke:black; stroke-width:1; fill:none;" points="460,126 460,122" />
	<polyline style="stroke:black; stroke-width:1; fill:none;" points="1100,101 1220,101" />
	<polyline style="stroke:black; stroke-width:1; fill:none;" points="1140,101 1140,97" />
	<polyline style="stroke:black; stroke-width:1; fill:none;" points="980,76 1140,76" />
	<polyline style="stroke:black; stroke-width:1; fill:none;" points="1020,76 1020,72" />
	<polyline style="stroke:black; stroke-width:1; fill:none;" points="460,51 1020,51" />
	<polyline style="stroke:black; stroke-width:1; fill:none;" points="900,51 900,47" />
	<polyline style="stroke:black; stroke-width:1; fill:none;" points="20,26 900,26" />
	<polyline style="stroke:black; stroke-width:1; fill:none;" points="740,26 740,22" />
	<polyline style="stroke:white; stroke-width:10; fill:none;" points="1420,258 1420,256" />
	<polyline style="stroke:black; stroke-width:1; fill:none;" points="1420,258 1420,251" />
	<polyline style="stroke:white; stroke-width:10; fill:none;" points="1340,258 1340,256" />
	<polyline style="stroke:black; stroke-width:1; fill:none;" points="1340,258 1340,251" />
	<polyline style="stroke:white; stroke-width:10; fill:none;" points="1300,258 1300,256" />
	<polyline style="stroke:black; stroke-width:1; fill:none;" points="1300,258 1300,251" />
	<polyline style="stroke:white; stroke-width:10; fill:none;" points="1260,258 1260,256" />
	<polyline style="stroke:black; stroke-width:1; fill:none;" points="1260,258 1260,251" />
	<polyline style="stroke:white; stroke-width:10; fill:none;" points="1220,258 1220,256" />
	<polyline style="stroke:black; stroke-width:1; fill:none;" points="1220,258 1220,251" />
	<polyline style="stroke:white; stroke-width:10; fill:none;" points="1180,258 1180,256" />
	<polyline style="stroke:black; stroke-width:1; fill:none;" points="1180,258 1180,251" />
	<polyline style="stroke:white; stroke-width:10; fill:none;" points="1140,258 1140,256" />
	<polyline style="stroke:black; stroke-width:1; fill:none;" points="1140,258 1140,251" />
	<polyline style="stroke:white; stroke-width:10; fill:none;" points="1060,258 1060,256" />
	<polyline style="stroke:black; stroke-width:1; fill:none;" points="1060,258 1060,251" />
	<polyline style="stroke:white; stroke-width:10; fill:none;" points="1020,258 1020,256" />
	<polyline style="stroke:black; stroke-width:1; fill:none;" points="1020,258 1020,251" />
	<polyline style="stroke:white; stroke-width:10; fill:none;" points="980,258 980,256" />
	<polyline style="stroke:black; stroke-width:1; fill:none;" points="980,258 980,251" />
	<polyline style="stroke:white; stroke-width:10; fill:none;" points="940,258 940,256" />
	<polyline style="stroke:black; stroke-width:1; fill:none;" points="940,258 940,251" />
	<polyline style="stroke:white; stroke-width:10; fill:none;" points="900,258 900,256" />
	<polyline style="stroke:black; stroke-width:1; fill:none;" points="900,258 900,251" />
	<polyline style="stroke:white; stroke-width:10; fill:none;" points="820,258 820,256" />
	<polyline style="stroke:black; stroke-width:1; fill:none;" points="820,258 820,251" />
	<polyline style="stroke:white; stroke-width:10; fill:none;" points="780,258 780,256" />
	<polyline style="stroke:black; stroke-width:1; fill:none;" points="780,258 780,251" />
	<polyline style="stroke:white; stroke-width:10; fill:none;" points="740,258 740,256" />
	<polyline style="stroke:black; stroke-width:1; fill:none;" points="740,258 740,251" />
	<polyline style="stroke:white; stroke-width:10; fill:none;" points="660,258 660,256" />
	<polyline style="stroke:black; stroke-width:1; fill:none;" points="660,258 660,251" />
	<polyline style="stroke:white; stroke-width:10; fill:none;" points="580,258 580,256" />
	<polyline style="stroke:black; stroke-width:1; fill:none;" points="580,258 580,251" />
	<polyline style="stroke:white; stroke-width:10; fill:none;" points="500,258 500,256" />
	<polyline style="stroke:black; stroke-width:1; fill:none;" points="500,258 500,251" />
	<polyline style="stroke:white; stroke-width:10; fill:none;" points="460,258 460,256" />
	<polyline style="stroke:black; stroke-width:1; fill:none;" points="460,258 460,251" />
	<polyline style="stroke:white; stroke-width:10; fill:none;" points="420,258 420,256" />
	<polyline style="stroke:black; stroke-width:1; fill:none;" points="420,258 420,251" />
	<polyline style="stroke:white; stroke-width:10; fill:none;" points="380,258 380,256" />
	<polyline style="stroke:black; stroke-width:1; fill:none;" points="380,258 380,251" />
	<polyline style="stroke:white; stroke-width:10; fill:none;" points="340,258 340,256" />
	<polyline style="stroke:black; stroke-width:1; fill:none;" points="340,258 340,251" />
	<polyline style="stroke:white; stroke-width:10; fill:none;" points="300,258 300,256" />
	<polyline style="stroke:black; stroke-width:1; fill:none;" points="300,258 300,251" />
	<polyline style="stroke:white; stroke-width:10; fill:none;" points="260,258 260,256" />
	<polyline style="stroke:black; stroke-width:1; fill:none;" points="260,258 260,251" />
	<polyline style="stroke:white; stroke-width:10; fill:none;" points="220,258 220,256" />
	<polyline style="stroke:black; stroke-width:1; fill:none;" points="220,258 220,251" />
	<polyline style="stroke:white; stroke-width:10; fill:none;" points="180,258 180,256" />
	<polyline style="stroke:black; stroke-width:1; fill:none;" points="180,258 180,251" />
	<polyline style="stroke:white; stroke-width:10; fill:none;" points="100,258 100,256" />
	<polyline style="stroke:black; stroke-width:1; fill:none;" points="100,258 100,251" />
	<polyline style="stroke:white; stroke-width:10; fill:none;" points="60,258 60,256" />
	<polyline style="stroke:black; stroke-width:1; fill:none;" points="60,258 60,251" />
	<polyline style="stroke:white; stroke-width:10; fill:none;" points="20,258 20,256" />
	<polyline style="stroke:black; stroke-width:1; fill:none;" points="20,258 20,251" />
	<polyline style="stroke:white; stroke-width:10; fill:none;" points="1340,233 1340,231" />
	<polyline style="stroke:black; stroke-width:1; fill:none;" points="1340,233 1340,226" />
	<polyline style="stroke:white; stroke-width:10; fill:none;" points="1420,233 1420,231" />
	<polyline style="stroke:black; stroke-width:1; fill:none;" points="1420,233 1420,226" />
	<polyline style="stroke:white; stroke-width:10; fill:none;" points="1060,233 1060,231" />
	<polyline style="stroke:black; stroke-width:1; fill:none;" points="1060,233 1060,226" />
	<polyline style="stroke:white; stroke-width:10; fill:none;" points="1140,233 1140,231" />
	<polyline style="stroke:black; stroke-width:1; fill:none;" points="1140,233 1140,226" />
	<polyline style="stroke:white; stroke-width:10; fill:none;" points="500,233 500,231" />
	<polyline style="stroke:black; stroke-width:1; fill:none;" points="500,233 500,226" />
	<polyline style="stroke:white; stroke-width:10; fill:none;" points="580,233 580,231" />
	<polyline style="stroke:black; stroke-width:1; fill:none;" points="580,233 580,226" />
	<polyline style="stroke:white; stroke-width:10; fill:none;" points="1300,233 1300,231" />
	<polyline style="stroke:black; stroke-width:1; fill:none;" points="1300,233 1300,226" />
	<polyline style="stroke:white; stroke-width:10; fill:none;" points="1180,233 1180,231" />
	<polyline style="stroke:black; stroke-width:1; fill:none;" points="1180,233 1180,226" />
	<polyline style="stroke:white; stroke-width:10; fill:none;" points="1020,233 1020,231" />
	<polyline style="stroke:black; stroke-width:1; fill:none;" points="1020,233 1020,226" />
	<polyline style="stroke:white; stroke-width:10; fill:none;" points="900,233 900,231" />
	<polyline style="stroke:black; stroke-width:1; fill:none;" points="900,233 900,226" />
	<polyline style="stroke:white; stroke-width:10; fill:none;" points="820,233 820,231" />
	<polyline style="stroke:black; stroke-width:1; fill:none;" points="820,233 820,226" />
	<polyline style="stroke:white; stroke-width:10; fill:none;" points="740,233 740,231" />
	<polyline style="stroke:black; stroke-width:1; fill:none;" points="740,233 740,226" />
	<polyline style="stroke:white; stroke-width:10; fill:none;" points="660,233 660,231" />
	<polyline style="stroke:black; stroke-width:1; fill:none;" points="660,233 660,226" />
	<polyline style="stroke:white; stroke-width:10; fill:none;" points="380,233 380,231" />
	<polyline style="stroke:black; stroke-width:1; fill:none;" points="380,233 380,226" />
	<polyline style="stroke:white; stroke-width:10; fill:none;" points="260,233 260,231" />
	<polyline style="stroke:black; stroke-width:1; fill:none;" points="260,233 260,226" />
	<polyline style="stroke:white; stroke-width:10; fill:none;" points="180,233 180,231" />
	<polyline style="stroke:black; stroke-width:1; fill:none;" points="180,233 180,226" />
	<polyline style="stroke:white; stroke-width:10; fill:none;" points="100,233 100,231" />
	<polyline style="stroke:black; stroke-width:1; fill:none;" points="100,233 100,226" />
	<polyline style="stroke:white; stroke-width:10; fill:none;" points="20,233 20,231" />
	<polyline style="stroke:black; stroke-width:1; fill:none;" points="20,233 20,226" />
	<polyline style="stroke:white; stroke-width:10; fill:none;" points="1260,233 1260,206" />
	<polyline style="stroke:black; stroke-width:1; fill:none;" points="1260,233 1260,201" />
	<polyline style="stroke:white; stroke-width:10; fill:none;" points="1300,208 1300,206" />
	<polyline style="stroke:black; stroke-width:1; fill:none;" points="1300,208 1300,201" />
	<polyline style="stroke:white; stroke-width:10; fill:none;" points="1380,208 1380,206" />
	<polyline style="stroke:black; stroke-width:1; fill:none;" points="1380,208 1380,201" />
	<polyline style="stroke:white; stroke-width:10; fill:none;" points="1100,208 1100,206" />
	<polyline style="stroke:black; stroke-width:1; fill:none;" points="1100,208 1100,201" />
	<polyline style="stroke:white; stroke-width:10; fill:none;" points="820,208 820,206" />
	<polyline style="stroke:black; stroke-width:1; fill:none;" points="820,208 820,201" />
	<polyline style="stroke:white; stroke-width:10; fill:none;" points="900,208 900,206" />
	<polyline style="stroke:black; stroke-width:1; fill:none;" points="900,208 900,201" />
	<polyline style="stroke:white; stroke-width:10; fill:none;" points="660,208 660,206" />
	<polyline style="stroke:black; stroke-width:1; fill:none;" points="660,208 660,201" />
	<polyline style="stroke:white; stroke-width:10; fill:none;" points="740,208 740,206" />
	<polyline style="stroke:black; stroke-width:1; fill:none;" points="740,208 740,201" />
	<polyline style="stroke:white; stroke-width:10; fill:none;" points="540,208 540,206" />
	<polyline style="stroke:black; stroke-width:1; fill:none;" points="540,208 540,201" />
	<polyline style="stroke:white; stroke-width:10; fill:none;" points="100,208 100,206" />
	<polyline style="stroke:black; stroke-width:1; fill:none;" points="100,208 100,201" />
	<polyline style="stroke:white; stroke-width:10; fill:none;" points="180,208 180,206" />
	<polyline style="stroke:black; stroke-width:1; fill:none;" points="180,208 180,201" />
	<polyline style="stroke:white; stroke-width:10; fill:none;" points="1300,183 1300,181" />
	<polyline style="stroke:black; stroke-width:1; fill:none;" points="1300,183 1300,176" />
	<polyline style="stroke:white; stroke-width:10; fill:none;" points="780,233 780,181" />
	<polyline style="stroke:black; stroke-width:1; fill:none;" points="780,233 780,176" />
	<polyline style="stroke:white; stroke-width:10; fill:none;" points="860,183 860,181" />
	<polyline style="stroke:black; stroke-width:1; fill:none;" points="860,183 860,176" />
	<polyline style="stroke:white; stroke-width:10; fill:none;" points="940,233 940,181" />
	<polyline style="stroke:black; stroke-width:1; fill:none;" points="940,233 940,176" />
	<polyline style="stroke:white; stroke-width:10; fill:none;" points="540,183 540,181" />
	<polyline style="stroke:black; stroke-width:1; fill:none;" points="540,183 540,176" />
	<polyline style="stroke:white; stroke-width:10; fill:none;" points="700,183 700,181" />
	<polyline style="stroke:black; stroke-width:1; fill:none;" points="700,183 700,176" />
	<polyline style="stroke:white; stroke-width:10; fill:none;" points="140,183 140,181" />
	<polyline style="stroke:black; stroke-width:1; fill:none;" points="140,183 140,176" />
	<polyline style="stroke:white; stroke-width:10; fill:none;" points="220,233 220,181" />
	<polyline style="stroke:black; stroke-width:1; fill:none;" points="220,233 220,176" />
	<polyline style="stroke:white; stroke-width:10; fill:none;" points="1220,233 1220,156" />
	<polyline style="stroke:black; stroke-width:1; fill:none;" points="1220,233 1220,151" />
	<polyline style="stroke:white; stroke-width:10; fill:none;" points="1300,158 1300,156" />
	<polyline style="stroke:black; stroke-width:1; fill:none;" points="1300,158 1300,151" />
	<polyline style="stroke:white; stroke-width:10; fill:none;" points="460,233 460,156" />
	<polyline style="stroke:black; stroke-width:1; fill:none;" points="460,233 460,151" />
	<polyline style="stroke:white; stroke-width:10; fill:none;" points="620,158 620,156" />
	<polyline style="stroke:black; stroke-width:1; fill:none;" points="620,158 620,151" />
	<polyline style="stroke:white; stroke-width:10; fill:none;" points="300,233 300,131" />
	<polyline style="stroke:black; stroke-width:1; fill:none;" points="300,233 300,126" />
	<polyline style="stroke:white; stroke-width:10; fill:none;" points="340,233 340,131" />
	<polyline style="stroke:black; stroke-width:1; fill:none;" points="340,233 340,126" />
	<polyline style="stroke:white; stroke-width:10; fill:none;" points="380,208 380,131" />
	<polyline style="stroke:black; stroke-width:1; fill:none;" points="380,208 380,126" />
	<polyline style="stroke:white; stroke-width:10; fill:none;" points="420,233 420,131" />
	<polyline style="stroke:black; stroke-width:1; fill:none;" points="420,233 420,126" />
	<polyline style="stroke:white; stroke-width:10; fill:none;" points="580,133 580,131" />
	<polyline style="stroke:black; stroke-width:1; fill:none;" points="580,133 580,126" />
	<polyline style="stroke:white; stroke-width:10; fill:none;" points="1180,208 1180,131" />
	<polyline style="stroke:black; stroke-width:1; fill:none;" points="1180,208 1180,126" />
	<polyline style="stroke:white; stroke-width:10; fill:none;" points="1260,133 1260,131" />
	<polyline style="stroke:black; stroke-width:1; fill:none;" points="1260,133 1260,126" />
	<polyline style="stroke:white; stroke-width:10; fill:none;" points="1100,183 1100,106" />
	<polyline style="stroke:black; stroke-width:1; fill:none;" points="1100,183 1100,101" />
	<polyline style="stroke:white; stroke-width:10; fill:none;" points="1220,108 1220,106" />
	<polyline style="stroke:black; stroke-width:1; fill:none;" points="1220,108 1220,101" />
	<polyline style="stroke:white; stroke-width:10; fill:none;" points="980,233 980,81" />
	<polyline style="stroke:black; stroke-width:1; fill:none;" points="980,233 980,76" />
	<polyline style="stroke:white; stroke-width:10; fill:none;" points="1020,208 1020,81" />
	<polyline style="stroke:black; stroke-width:1; fill:none;" points="1020,208 1020,76" />
	<polyline style="stroke:white; stroke-width:10; fill:none;" points="1140,83 1140,81" />
	<polyline style="stroke:black; stroke-width:1; fill:none;" points="1140,83 1140,76" />
	<polyline style="stroke:white; stroke-width:10; fill:none;" points="460,108 460,56" />
	<polyline style="stroke:black; stroke-width:1; fill:none;" points="460,108 460,51" />
	<polyline style="stroke:white; stroke-width:10; fill:none;" points="820,158 820,56" />
	<polyline style="stroke:black; stroke-width:1; fill:none;" points="820,158 820,51" />
	<polyline style="stroke:white; stroke-width:10; fill:none;" points="1020,58 1020,56" />
	<polyline style="stroke:black; stroke-width:1; fill:none;" points="1020,58 1020,51" />
	<polyline style="stroke:white; stroke-width:10; fill:none;" points="20,208 20,31" />
	<polyline style="stroke:black; stroke-width:1; fill:none;" points="20,208 20,26" />
	<polyline style="stroke:white; stroke-width:10; fill:none;" points="60,233 60,31" />
	<polyline style="stroke:black; stroke-width:1; fill:none;" points="60,233 60,26" />
	<polyline style="stroke:white; stroke-width:10; fill:none;" points="180,158 180,31" />
	<polyline style="stroke:black; stroke-width:1; fill:none;" points="180,158 180,26" />
	<polyline style="stroke:white; stroke-width:10; fill:none;" points="260,208 260,31" />
	<polyline style="stroke:black; stroke-width:1; fill:none;" points="260,208 260,26" />
	<polyline style="stroke:white; stroke-width:10; fill:none;" points="900,33 900,31" />
	<polyline style="stroke:black; stroke-width:1; fill:none;" points="900,33 900,26" />
	<text style="text-anchor: middle; fill: black; font-size: 14px; font-family: Avenir Next;" x="740" y="20">S</text>
	<text style="text-anchor: middle; fill: black; font-size: 14px; font-family: Avenir Next;" x="900" y="45">VP</text>
	<text style="text-anchor: middle; fill: black; font-size: 14px; font-family: Avenir Next;" x="1020" y="70">VP</text>
	<text style="text-anchor: middle; fill: black; font-size: 14px; font-family: Avenir Next;" x="1140" y="95">SBAR-NOM</text>
	<text style="text-anchor: middle; fill: black; font-size: 14px; font-family: Avenir Next;" x="460" y="120">VP</text>
	<text style="text-anchor: middle; fill: black; font-size: 14px; font-family: Avenir Next;" x="1220" y="120">S</text>
	<text style="text-anchor: middle; fill: black; font-size: 14px; font-family: Avenir Next;" x="580" y="145">VP</text>
	<text style="text-anchor: middle; fill: black; font-size: 14px; font-family: Avenir Next;" x="1260" y="145">VP</text>
	<text style="text-anchor: middle; fill: black; font-size: 14px; font-family: Avenir Next; font-weight: bold;" x="180" y="170">EDITED</text>
	<text style="text-anchor: middle; fill: black; font-size: 14px; font-family: Avenir Next;" x="620" y="170">SBAR-NOM</text>
	<text style="text-anchor: middle; fill: black; font-size: 14px; font-family: Avenir Next; font-weight: bold;" x="820" y="170">PRN</text>
	<text style="text-anchor: middle; fill: black; font-size: 14px; font-family: Avenir Next;" x="1300" y="170">S</text>
	<text style="text-anchor: middle; fill: black; font-size: 14px; font-family: Avenir Next;" x="140" y="195">S</text>
	<text style="text-anchor: middle; fill: black; font-size: 14px; font-family: Avenir Next;" x="540" y="195">WHNP-2</text>
	<text style="text-anchor: middle; fill: black; font-size: 14px; font-family: Avenir Next;" x="700" y="195">S</text>
	<text style="text-anchor: middle; fill: black; font-size: 14px; font-family: Avenir Next;" x="860" y="195">S</text>
	<text style="text-anchor: middle; fill: black; font-size: 14px; font-family: Avenir Next;" x="1100" y="195">WHNP-1</text>
	<text style="text-anchor: middle; fill: black; font-size: 14px; font-family: Avenir Next;" x="1300" y="195">VP</text>
	<text style="text-anchor: middle; fill: black; font-size: 14px; font-family: Avenir Next; font-weight: bold;" x="20" y="220">INTJ</text>
	<text style="text-anchor: middle; fill: black; font-size: 14px; font-family: Avenir Next;" x="100" y="220">NP-SBJ</text>
	<text style="text-anchor: middle; fill: black; font-size: 14px; font-family: Avenir Next;" x="180" y="220">VP-UNF</text>
	<text style="text-anchor: middle; fill: black; font-size: 14px; font-family: Avenir Next;" x="260" y="220">NP-SBJ</text>
	<text style="text-anchor: middle; fill: black; font-size: 14px; font-family: Avenir Next; font-weight: bold;" x="380" y="220">INTJ</text>
	<text style="text-anchor: middle; fill: black; font-size: 14px; font-family: Avenir Next;" x="540" y="220">WHADJP</text>
	<text style="text-anchor: middle; fill: black; font-size: 14px; font-family: Avenir Next;" x="660" y="220">NP-SBJ</text>
	<text style="text-anchor: middle; fill: black; font-size: 14px; font-family: Avenir Next;" x="740" y="220">VP</text>
	<text style="text-anchor: middle; fill: black; font-size: 14px; font-family: Avenir Next;" x="820" y="220">NP-SBJ</text>
	<text style="text-anchor: middle; fill: black; font-size: 14px; font-family: Avenir Next;" x="900" y="220">VP</text>
	<text style="text-anchor: middle; fill: black; font-size: 14px; font-family: Avenir Next;" x="1020" y="220">PRT</text>
	<text style="text-anchor: middle; fill: black; font-size: 14px; font-family: Avenir Next;" x="1100" y="220">WHADJP</text>
	<text style="text-anchor: middle; fill: black; font-size: 14px; font-family: Avenir Next;" x="1180" y="220">NP-SBJ</text>
	<text style="text-anchor: middle; fill: black; font-size: 14px; font-family: Avenir Next;" x="1300" y="220">PRT</text>
	<text style="text-anchor: middle; fill: black; font-size: 14px; font-family: Avenir Next;" x="1380" y="220">NP-TMP</text>
	<text style="text-anchor: middle; fill: black; font-size: 14px; font-family: Avenir Next;" x="20" y="245">UH</text>
	<text style="text-anchor: middle; fill: black; font-size: 14px; font-family: Avenir Next;" x="60" y="245">,</text>
	<text style="text-anchor: middle; fill: black; font-size: 14px; font-family: Avenir Next;" x="100" y="245">PRP</text>
	<text style="text-anchor: middle; fill: black; font-size: 14px; font-family: Avenir Next;" x="180" y="245">VBP</text>
	<text style="text-anchor: middle; fill: black; font-size: 14px; font-family: Avenir Next;" x="220" y="245">,</text>
	<text style="text-anchor: middle; fill: black; font-size: 14px; font-family: Avenir Next;" x="260" y="245">PRP</text>
	<text style="text-anchor: middle; fill: black; font-size: 14px; font-family: Avenir Next;" x="300" y="245">VBP</text>
	<text style="text-anchor: middle; fill: black; font-size: 14px; font-family: Avenir Next;" x="340" y="245">,</text>
	<text style="text-anchor: middle; fill: black; font-size: 14px; font-family: Avenir Next;" x="380" y="245">UH</text>
	<text style="text-anchor: middle; fill: black; font-size: 14px; font-family: Avenir Next;" x="420" y="245">,</text>
	<text style="text-anchor: middle; fill: black; font-size: 14px; font-family: Avenir Next;" x="460" y="245">VBN</text>
	<text style="text-anchor: middle; fill: black; font-size: 14px; font-family: Avenir Next;" x="500" y="245">WRB</text>
	<text style="text-anchor: middle; fill: black; font-size: 14px; font-family: Avenir Next;" x="580" y="245">JJ</text>
	<text style="text-anchor: middle; fill: black; font-size: 14px; font-family: Avenir Next;" x="660" y="245">PRP</text>
	<text style="text-anchor: middle; fill: black; font-size: 14px; font-family: Avenir Next;" x="740" y="245">VBP</text>
	<text style="text-anchor: middle; fill: black; font-size: 14px; font-family: Avenir Next;" x="780" y="245">,</text>
	<text style="text-anchor: middle; fill: black; font-size: 14px; font-family: Avenir Next;" x="820" y="245">PRP</text>
	<text style="text-anchor: middle; fill: black; font-size: 14px; font-family: Avenir Next;" x="900" y="245">VBP</text>
	<text style="text-anchor: middle; fill: black; font-size: 14px; font-family: Avenir Next;" x="940" y="245">,</text>
	<text style="text-anchor: middle; fill: black; font-size: 14px; font-family: Avenir Next;" x="980" y="245">VBP</text>
	<text style="text-anchor: middle; fill: black; font-size: 14px; font-family: Avenir Next;" x="1020" y="245">RP</text>
	<text style="text-anchor: middle; fill: black; font-size: 14px; font-family: Avenir Next;" x="1060" y="245">WRB</text>
	<text style="text-anchor: middle; fill: black; font-size: 14px; font-family: Avenir Next;" x="1140" y="245">RB</text>
	<text style="text-anchor: middle; fill: black; font-size: 14px; font-family: Avenir Next;" x="1180" y="245">PRP</text>
	<text style="text-anchor: middle; fill: black; font-size: 14px; font-family: Avenir Next;" x="1220" y="245">VBP</text>
	<text style="text-anchor: middle; fill: black; font-size: 14px; font-family: Avenir Next;" x="1260" y="245">VBG</text>
	<text style="text-anchor: middle; fill: black; font-size: 14px; font-family: Avenir Next;" x="1300" y="245">RB</text>
	<text style="text-anchor: middle; fill: black; font-size: 14px; font-family: Avenir Next;" x="1340" y="245">DT</text>
	<text style="text-anchor: middle; fill: black; font-size: 14px; font-family: Avenir Next;" x="1420" y="245">NN</text>
	<text style="text-anchor: middle; fill: black; font-size: 14px; font-family: Avenir Next; font-style: italic;" x="20" y="270">Uh</text>
	<text style="text-anchor: middle; fill: black; font-size: 14px; font-family: Avenir Next; font-style: italic;" x="60" y="270">,</text>
	<text style="text-anchor: middle; fill: black; font-size: 14px; font-family: Avenir Next; font-style: italic;" x="100" y="270">we</text>
	<text style="text-anchor: middle; fill: black; font-size: 14px; font-family: Avenir Next; font-style: italic;" x="180" y="270">'ve</text>
	<text style="text-anchor: middle; fill: black; font-size: 14px; font-family: Avenir Next; font-style: italic;" x="220" y="270">,</text>
	<text style="text-anchor: middle; fill: black; font-size: 14px; font-family: Avenir Next; font-style: italic;" x="260" y="270">we</text>
	<text style="text-anchor: middle; fill: black; font-size: 14px; font-family: Avenir Next; font-style: italic;" x="300" y="270">'ve</text>
	<text style="text-anchor: middle; fill: black; font-size: 14px; font-family: Avenir Next; font-style: italic;" x="340" y="270">,</text>
	<text style="text-anchor: middle; fill: black; font-size: 14px; font-family: Avenir Next; font-style: italic;" x="380" y="270">uh</text>
	<text style="text-anchor: middle; fill: black; font-size: 14px; font-family: Avenir Next; font-style: italic;" x="420" y="270">,</text>
	<text style="text-anchor: middle; fill: black; font-size: 14px; font-family: Avenir Next; font-style: italic;" x="460" y="270">taken</text>
	<text style="text-anchor: middle; fill: black; font-size: 14px; font-family: Avenir Next; font-style: italic;" x="500" y="270">how</text>
	<text style="text-anchor: middle; fill: black; font-size: 14px; font-family: Avenir Next; font-style: italic;" x="580" y="270">much</text>
	<text style="text-anchor: middle; fill: black; font-size: 14px; font-family: Avenir Next; font-style: italic;" x="660" y="270">we</text>
	<text style="text-anchor: middle; fill: black; font-size: 14px; font-family: Avenir Next; font-style: italic;" x="740" y="270">have</text>
	<text style="text-anchor: middle; fill: black; font-size: 14px; font-family: Avenir Next; font-style: italic;" x="780" y="270">,</text>
	<text style="text-anchor: middle; fill: black; font-size: 14px; font-family: Avenir Next; font-style: italic;" x="820" y="270">you</text>
	<text style="text-anchor: middle; fill: black; font-size: 14px; font-family: Avenir Next; font-style: italic;" x="900" y="270">know</text>
	<text style="text-anchor: middle; fill: black; font-size: 14px; font-family: Avenir Next; font-style: italic;" x="940" y="270">,</text>
	<text style="text-anchor: middle; fill: black; font-size: 14px; font-family: Avenir Next; font-style: italic;" x="980" y="270">write</text>
	<text style="text-anchor: middle; fill: black; font-size: 14px; font-family: Avenir Next; font-style: italic;" x="1020" y="270">down</text>
	<text style="text-anchor: middle; fill: black; font-size: 14px; font-family: Avenir Next; font-style: italic;" x="1060" y="270">how</text>
	<text style="text-anchor: middle; fill: black; font-size: 14px; font-family: Avenir Next; font-style: italic;" x="1140" y="270">much</text>
	<text style="text-anchor: middle; fill: black; font-size: 14px; font-family: Avenir Next; font-style: italic;" x="1180" y="270">we</text>
	<text style="text-anchor: middle; fill: black; font-size: 14px; font-family: Avenir Next; font-style: italic;" x="1220" y="270">have</text>
	<text style="text-anchor: middle; fill: black; font-size: 14px; font-family: Avenir Next; font-style: italic;" x="1260" y="270">coming</text>
	<text style="text-anchor: middle; fill: black; font-size: 14px; font-family: Avenir Next; font-style: italic;" x="1300" y="270">in</text>
	<text style="text-anchor: middle; fill: black; font-size: 14px; font-family: Avenir Next; font-style: italic;" x="1340" y="270">each</text>
	<text style="text-anchor: middle; fill: black; font-size: 14px; font-family: Avenir Next; font-style: italic;" x="1420" y="270">month</text>
</svg>