<svg version="1.1" xmlns="http://www.w3.org/2000/svg" width="56.7em" height="17em" viewBox="-18 -20 810 235">
	<polyline style="stroke:black; stroke-width:1; fill:none;" points="18,176 18,176" />
	<polyline style="stroke:black; stroke-width:1; fill:none;" points="18,176 18,172" />
	<polyline style="stroke:black; stroke-width:1; fill:none;" points="54,176 54,176" />
	<polyline style="stroke:black; stroke-width:1; fill:none;" points="54,176 54,172" />
	<polyline style="stroke:black; stroke-width:1; fill:none;" points="90,176 90,176" />
	<polyline style="stroke:black; stroke-width:1; fill:none;" points="90,176 90,172" />
	<polyline style="stroke:black; stroke-width:1; fill:none;" points="126,176 126,176" />
	<polyline style="stroke:black; stroke-width:1; fill:none;" points="126,176 126,172" />
	<polyline style="stroke:black; stroke-width:1; fill:none;" points="198,176 198,176" />
	<polyline style="stroke:black; stroke-width:1; fill:none;" points="198,176 198,172" />
	<polyline style="stroke:black; stroke-width:1; fill:none;" points="234,176 234,176" />
	<polyline style="stroke:black; stroke-width:1; fill:none;" points="234,176 234,172" />
	<polyline style="stroke:black; stroke-width:1; fill:none;" points="270,176 270,176" />
	<polyline style="stroke:black; stroke-width:1; fill:none;" points="270,176 270,172" />
	<polyline style="stroke:black; stroke-width:1; fill:none;" points="342,176 342,176" />
	<polyline style="stroke:black; stroke-width:1; fill:none;" points="342,176 342,172" />
	<polyline style="stroke:black; stroke-width:1; fill:none;" points="378,176 378,176" />
	<polyline style="stroke:black; stroke-width:1; fill:none;" points="378,176 378,172" />
	<polyline style="stroke:black; stroke-width:1; fill:none;" points="414,176 414,176" />
	<polyline style="stroke:black; stroke-width:1; fill:none;" points="414,176 414,172" />
	<polyline style="stroke:black; stroke-width:1; fill:none;" points="450,176 450,176" />
	<polyline style="stroke:black; stroke-width:1; fill:none;" points="450,176 450,172" />
	<polyline style="stroke:black; stroke-width:1; fill:none;" points="486,176 486,176" />
	<polyline style="stroke:black; stroke-width:1; fill:none;" points="486,176 486,172" />
	<polyline style="stroke:black; stroke-width:1; fill:none;" points="522,176 522,176" />
	<polyline style="stroke:black; stroke-width:1; fill:none;" points="522,176 522,172" />
	<polyline style="stroke:black; stroke-width:1; fill:none;" points="558,176 558,176" />
	<polyline style="stroke:black; stroke-width:1; fill:none;" points="558,176 558,172" />
	<polyline style="stroke:black; stroke-width:1; fill:none;" points="594,176 594,176" />
	<polyline style="stroke:black; stroke-width:1; fill:none;" points="594,176 594,172" />
	<polyline style="stroke:black; stroke-width:1; fill:none;" points="630,176 630,176" />
	<polyline style="stroke:black; stroke-width:1; fill:none;" points="630,176 630,172" />
	<polyline style="stroke:black; stroke-width:1; fill:none;" points="666,176 666,176" />
	<polyline style="stroke:black; stroke-width:1; fill:none;" points="666,176 666,172" />
	<polyline style="stroke:black; stroke-width:1; fill:none;" points="738,176 738,176" />
	<polyline style="stroke:black; stroke-width:1; fill:none;" points="738,176 738,172" />
	<polyline style="stroke:black; stroke-width:1; fill:none;" points="774,176 774,176" />
	<polyline style="stroke:black; stroke-width:1; fill:none;" points="774,176 774,172" />
	<polyline style="stroke:black; stroke-width:1; fill:none;" points="18,151 18,151" />
	<polyline style="stroke:black; stroke-width:1; fill:none;" points="18,151 18,147" />
	<polyline style="stroke:black; stroke-width:1; fill:none;" points="270,151 270,151" />
	<polyline style="stroke:black; stroke-width:1; fill:none;" points="270,151 270,147" />
	<polyline style="stroke:black; stroke-width:1; fill:none;" points="378,151 378,151" />
	<polyline style="stroke:black; stroke-width:1; fill:none;" points="378,151 378,147" />
	<polyline style="stroke:black; stroke-width:1; fill:none;" points="486,151 486,151" />
	<polyline style="stroke:black; stroke-width:1; fill:none;" points="486,151 486,147" />
	<polyline style="stroke:black; stroke-width:1; fill:none;" points="666,151 666,151" />
	<polyline style="stroke:black; stroke-width:1; fill:none;" points="666,151 666,147" />
	<polyline style="stroke:black; stroke-width:1; fill:none;" points="738,151 738,151" />
	<polyline style="stroke:black; stroke-width:1; fill:none;" points="738,151 738,147" />
	<polyline style="stroke:black; stroke-width:1; fill:none;" points="126,151 198,151" />
	<polyline style="stroke:black; stroke-width:1; fill:none;" points="162,151 162,147" />
	<polyline style="stroke:black; stroke-width:1; fill:none;" points="270,126 342,126" />
	<polyline style="stroke:black; stroke-width:1; fill:none;" points="306,126 306,122" />
	<polyline style="stroke:black; stroke-width:1; fill:none;" points="666,126 738,126" />
	<polyline style="stroke:black; stroke-width:1; fill:none;" points="702,126 702,122" />
	<polyline style="stroke:black; stroke-width:1; fill:none;" points="90,126 234,126" />
	<polyline style="stroke:black; stroke-width:1; fill:none;" points="126,126 126,122" />
	<polyline style="stroke:black; stroke-width:1; fill:none;" points="450,126 558,126" />
	<polyline style="stroke:black; stroke-width:1; fill:none;" points="486,126 486,122" />
	<polyline style="stroke:black; stroke-width:1; fill:none;" points="702,101 702,101" />
	<polyline style="stroke:black; stroke-width:1; fill:none;" points="702,101 702,97" />
	<polyline style="stroke:black; stroke-width:1; fill:none;" points="486,101 594,101" />
	<polyline style="stroke:black; stroke-width:1; fill:none;" points="522,101 522,97" />
	<polyline style="stroke:black; stroke-width:1; fill:none;" points="522,76 702,76" />
	<polyline style="stroke:black; stroke-width:1; fill:none;" points="558,76 558,72" />
	<polyline style="stroke:black; stroke-width:1; fill:none;" points="54,51 558,51" />
	<polyline style="stroke:black; stroke-width:1; fill:none;" points="414,51 414,47" />
	<polyline style="stroke:black; stroke-width:1; fill:none;" points="18,26 774,26" />
	<polyline style="stroke:black; stroke-width:1; fill:none;" points="414,26 414,22" />
	<polyline style="stroke:white; stroke-width:10; fill:none;" points="774,183 774,181" />
	<polyline style="stroke:black; stroke-width:1; fill:none;" points="774,183 774,176" />
	<polyline style="stroke:white; stroke-width:10; fill:none;" points="738,183 738,181" />
	<polyline style="stroke:black; stroke-width:1; fill:none;" points="738,183 738,176" />
	<polyline style="stroke:white; stroke-width:10; fill:none;" points="666,183 666,181" />
	<polyline style="stroke:black; stroke-width:1; fill:none;" points="666,183 666,176" />
	<polyline style="stroke:white; stroke-width:10; fill:none;" points="630,183 630,181" />
	<polyline style="stroke:black; stroke-width:1; fill:none;" points="630,183 630,176" />
	<polyline style="stroke:white; stroke-width:10; fill:none;" points="594,183 594,181" />
	<polyline style="stroke:black; stroke-width:1; fill:none;" points="594,183 594,176" />
	<polyline style="stroke:white; stroke-width:10; fill:none;" points="558,183 558,181" />
	<polyline style="stroke:black; stroke-width:1; fill:none;" points="558,183 558,176" />
	<polyline style="stroke:white; stroke-width:10; fill:none;" points="522,183 522,181" />
	<polyline style="stroke:black; stroke-width:1; fill:none;" points="522,183 522,176" />
	<polyline style="stroke:white; stroke-width:10; fill:none;" points="486,183 486,181" />
	<polyline style="stroke:black; stroke-width:1; fill:none;" points="486,183 486,176" />
	<polyline style="stroke:white; stroke-width:10; fill:none;" points="450,183 450,181" />
	<polyline style="stroke:black; stroke-width:1; fill:none;" points="450,183 450,176" />
	<polyline style="stroke:white; stroke-width:10; fill:none;" points="414,183 414,181" />
	<polyline style="stroke:black; stroke-width:1; fill:none;" points="414,183 414,176" />
	<polyline style="stroke:white; stroke-width:10; fill:none;" points="378,183 378,181" />
	<polyline style="stroke:black; stroke-width:1; fill:none;" points="378,183 378,176" />
	<polyline style="stroke:white; stroke-width:10; fill:none;" points="342,183 342,181" />
	<polyline style="stroke:black; stroke-width:1; fill:none;" points="342,183 342,176" />
	<polyline style="stroke:white; stroke-width:10; fill:none;" points="270,183 270,181" />
	<polyline style="stroke:black; stroke-width:1; fill:none;" points="270,183 270,176" />
	<polyline style="stroke:white; stroke-width:10; fill:none;" points="234,183 234,181" />
	<polyline style="stroke:black; stroke-width:1; fill:none;" points="234,183 234,176" />
	<polyline style="stroke:white; stroke-width:10; fill:none;" points="198,183 198,181" />
	<polyline style="stroke:black; stroke-width:1; fill:none;" points="198,183 198,176" />
	<polyline style="stroke:white; stroke-width:10; fill:none;" points="126,183 126,181" />
	<polyline style="stroke:black; stroke-width:1; fill:none;" points="126,183 126,176" />
	<polyline style="stroke:white; stroke-width:10; fill:none;" points="90,183 90,181" />
	<polyline style="stroke:black; stroke-width:1; fill:none;" points="90,183 90,176" />
	<polyline style="stroke:white; stroke-width:10; fill:none;" points="54,183 54,181" />
	<polyline style="stroke:black; stroke-width:1; fill:none;" points="54,183 54,176" />
	<polyline style="stroke:white; stroke-width:10; fill:none;" points="18,183 18,181" />
	<polyline style="stroke:black; stroke-width:1; fill:none;" points="18,183 18,176" />
	<polyline style="stroke:white; stroke-width:10; fill:none;" points="126,158 126,156" />
	<polyline style="stroke:black; stroke-width:1; fill:none;" points="126,158 126,151" />
	<polyline style="stroke:white; stroke-width:10; fill:none;" points="198,158 198,156" />
	<polyline style="stroke:black; stroke-width:1; fill:none;" points="198,158 198,151" />
	<polyline style="stroke:white; stroke-width:10; fill:none;" points="738,158 738,156" />
	<polyline style="stroke:black; stroke-width:1; fill:none;" points="738,158 738,151" />
	<polyline style="stroke:white; stroke-width:10; fill:none;" points="666,158 666,156" />
	<polyline style="stroke:black; stroke-width:1; fill:none;" points="666,158 666,151" />
	<polyline style="stroke:white; stroke-width:10; fill:none;" points="486,158 486,156" />
	<polyline style="stroke:black; stroke-width:1; fill:none;" points="486,158 486,151" />
	<polyline style="stroke:white; stroke-width:10; fill:none;" points="378,158 378,156" />
	<polyline style="stroke:black; stroke-width:1; fill:none;" points="378,158 378,151" />
	<polyline style="stroke:white; stroke-width:10; fill:none;" points="270,158 270,156" />
	<polyline style="stroke:black; stroke-width:1; fill:none;" points="270,158 270,151" />
	<polyline style="stroke:white; stroke-width:10; fill:none;" points="18,158 18,156" />
	<polyline style="stroke:black; stroke-width:1; fill:none;" points="18,158 18,151" />
	<polyline style="stroke:white; stroke-width:10; fill:none;" points="450,158 450,131" />
	<polyline style="stroke:black; stroke-width:1; fill:none;" points="450,158 450,126" />
	<polyline style="stroke:white; stroke-width:10; fill:none;" points="486,133 486,131" />
	<polyline style="stroke:black; stroke-width:1; fill:none;" points="486,133 486,126" />
	<polyline style="stroke:white; stroke-width:10; fill:none;" points="522,158 522,131" />
	<polyline style="stroke:black; stroke-width:1; fill:none;" points="522,158 522,126" />
	<polyline style="stroke:white; stroke-width:10; fill:none;" points="558,158 558,131" />
	<polyline style="stroke:black; stroke-width:1; fill:none;" points="558,158 558,126" />
	<polyline style="stroke:white; stroke-width:10; fill:none;" points="90,158 90,131" />
	<polyline style="stroke:black; stroke-width:1; fill:none;" points="90,158 90,126" />
	<polyline style="stroke:white; stroke-width:10; fill:none;" points="162,133 162,131" />
	<polyline style="stroke:black; stroke-width:1; fill:none;" points="162,133 162,126" />
	<polyline style="stroke:white; stroke-width:10; fill:none;" points="234,158 234,131" />
	<polyline style="stroke:black; stroke-width:1; fill:none;" points="234,158 234,126" />
	<polyline style="stroke:white; stroke-width:10; fill:none;" points="666,133 666,131" />
	<polyline style="stroke:black; stroke-width:1; fill:none;" points="666,133 666,126" />
	<polyline style="stroke:white; stroke-width:10; fill:none;" points="738,133 738,131" />
	<polyline style="stroke:black; stroke-width:1; fill:none;" points="738,133 738,126" />
	<polyline style="stroke:white; stroke-width:10; fill:none;" points="270,133 270,131" />
	<polyline style="stroke:black; stroke-width:1; fill:none;" points="270,133 270,126" />
	<polyline style="stroke:white; stroke-width:10; fill:none;" points="342,158 342,131" />
	<polyline style="stroke:black; stroke-width:1; fill:none;" points="342,158 342,126" />
	<polyline style="stroke:white; stroke-width:10; fill:none;" points="486,108 486,106" />
	<polyline style="stroke:black; stroke-width:1; fill:none;" points="486,108 486,101" />
	<polyline style="stroke:white; stroke-width:10; fill:none;" points="594,158 594,106" />
	<polyline style="stroke:black; stroke-width:1; fill:none;" points="594,158 594,101" />
	<polyline style="stroke:white; stroke-width:10; fill:none;" points="702,108 702,106" />
	<polyline style="stroke:black; stroke-width:1; fill:none;" points="702,108 702,101" />
	<polyline style="stroke:white; stroke-width:10; fill:none;" points="522,83 522,81" />
	<polyline style="stroke:black; stroke-width:1; fill:none;" points="522,83 522,76" />
	<polyline style="stroke:white; stroke-width:10; fill:none;" points="630,158 630,81" />
	<polyline style="stroke:black; stroke-width:1; fill:none;" points="630,158 630,76" />
	<polyline style="stroke:white; stroke-width:10; fill:none;" points="702,83 702,81" />
	<polyline style="stroke:black; stroke-width:1; fill:none;" points="702,83 702,76" />
	<polyline style="stroke:white; stroke-width:10; fill:none;" points="54,158 54,56" />
	<polyline style="stroke:black; stroke-width:1; fill:none;" points="54,158 54,51" />
	<polyline style="stroke:white; stroke-width:10; fill:none;" points="126,108 126,56" />
	<polyline style="stroke:black; stroke-width:1; fill:none;" points="126,108 126,51" />
	<polyline style="stroke:white; stroke-width:10; fill:none;" points="306,108 306,56" />
	<polyline style="stroke:black; stroke-width:1; fill:none;" points="306,108 306,51" />
	<polyline style="stroke:white; stroke-width:10; fill:none;" points="378,133 378,56" />
	<polyline style="stroke:black; stroke-width:1; fill:none;" points="378,133 378,51" />
	<polyline style="stroke:white; stroke-width:10; fill:none;" points="414,158 414,56" />
	<polyline style="stroke:black; stroke-width:1; fill:none;" points="414,158 414,51" />
	<polyline style="stroke:white; stroke-width:10; fill:none;" points="558,58 558,56" />
	<polyline style="stroke:black; stroke-width:1; fill:none;" points="558,58 558,51" />
	<polyline style="stroke:white; stroke-width:10; fill:none;" points="18,133 18,31" />
	<polyline style="stroke:black; stroke-width:1; fill:none;" points="18,133 18,26" />
	<polyline style="stroke:white; stroke-width:10; fill:none;" points="414,33 414,31" />
	<polyline style="stroke:black; stroke-width:1; fill:none;" points="414,33 414,26" />
	<polyline style="stroke:white; stroke-width:10; fill:none;" points="774,158 774,31" />
	<polyline style="stroke:black; stroke-width:1; fill:none;" points="774,158 774,26" />
	<text style="text-anchor: middle; fill: black; font-size: 14px; font-family: Avenir Next;" x="414" y="20">S</text>
	<text style="text-anchor: middle; fill: black; font-size: 14px; font-family: Avenir Next;" x="414" y="45">VP</text>
	<text style="text-anchor: middle; fill: black; font-size: 14px; font-family: Avenir Next;" x="558" y="70">ADVP-TMP</text>
	<text style="text-anchor: middle; fill: black; font-size: 14px; font-family: Avenir Next;" x="522" y="95">NP</text>
	<text style="text-anchor: middle; fill: black; font-size: 14px; font-family: Avenir Next; font-weight: bold;" x="702" y="95">PRN</text>
	<text style="text-anchor: middle; fill: black; font-size: 14px; font-family: Avenir Next;" x="126" y="120">NP</text>
	<text style="text-anchor: middle; fill: black; font-size: 14px; font-family: Avenir Next; font-weight: bold;" x="306" y="120">EDITED</text>
	<text style="text-anchor: middle; fill: black; font-size: 14px; font-family: Avenir Next;" x="486" y="120">QP</text>
	<text style="text-anchor: middle; fill: black; font-size: 14px; font-family: Avenir Next;" x="702" y="120">S</text>
	<text style="text-anchor: middle; fill: black; font-size: 14px; font-family: Avenir Next;" x="18" y="145">NP-SBJ</text>
	<text style="text-anchor: middle; fill: black; font-size: 14px; font-family: Avenir Next;" x="162" y="145">ADJP</text>
	<text style="text-anchor: middle; fill: black; font-size: 11px; font-family: Avenir Next;" x="282" y="145">ADVP-TMP-UNF</text>
	<text style="text-anchor: middle; fill: black; font-size: 14px; font-family: Avenir Next; font-weight: bold;" x="378" y="145">INTJ</text>
	<text style="text-anchor: middle; fill: black; font-size: 14px; font-family: Avenir Next; font-weight: bold;" x="486" y="145">INTJ</text>
	<text style="text-anchor: middle; fill: black; font-size: 14px; font-family: Avenir Next;" x="666" y="145">NP-SBJ</text>
	<text style="text-anchor: middle; fill: black; font-size: 14px; font-family: Avenir Next;" x="738" y="145">VP</text>
	<text style="text-anchor: middle; fill: black; font-size: 14px; font-family: Avenir Next;" x="18" y="170">PRP</text>
	<text style="text-anchor: middle; fill: black; font-size: 14px; font-family: Avenir Next;" x="54" y="170">VBD</text>
	<text style="text-anchor: middle; fill: black; font-size: 14px; font-family: Avenir Next;" x="90" y="170">DT</text>
	<text style="text-anchor: middle; fill: black; font-size: 14px; font-family: Avenir Next;" x="126" y="170">RB</text>
	<text style="text-anchor: middle; fill: black; font-size: 14px; font-family: Avenir Next;" x="198" y="170">JJ</text>
	<text style="text-anchor: middle; fill: black; font-size: 14px; font-family: Avenir Next;" x="234" y="170">NN</text>
	<text style="text-anchor: middle; fill: black; font-size: 14px; font-family: Avenir Next;" x="270" y="170">RB</text>
	<text style="text-anchor: middle; fill: black; font-size: 14px; font-family: Avenir Next;" x="342" y="170">,</text>
	<text style="text-anchor: middle; fill: black; font-size: 14px; font-family: Avenir Next;" x="378" y="170">UH</text>
	<text style="text-anchor: middle; fill: black; font-size: 14px; font-family: Avenir Next;" x="414" y="170">,</text>
	<text style="text-anchor: middle; fill: black; font-size: 14px; font-family: Avenir Next;" x="450" y="170">RB</text>
	<text style="text-anchor: middle; fill: black; font-size: 14px; font-family: Avenir Next;" x="486" y="170">UH</text>
	<text style="text-anchor: middle; fill: black; font-size: 14px; font-family: Avenir Next;" x="522" y="170">,</text>
	<text style="text-anchor: middle; fill: black; font-size: 14px; font-family: Avenir Next;" x="558" y="170">CD</text>
	<text style="text-anchor: middle; fill: black; font-size: 14px; font-family: Avenir Next;" x="594" y="170">NNS</text>
	<text style="text-anchor: middle; fill: black; font-size: 14px; font-family: Avenir Next;" x="630" y="170">RB</text>
	<text style="text-anchor: middle; fill: black; font-size: 14px; font-family: Avenir Next;" x="666" y="170">PRP</text>
	<text style="text-anchor: middle; fill: black; font-size: 14px; font-family: Avenir Next;" x="738" y="170">VBP</text>
	<text style="text-anchor: middle; fill: black; font-size: 14px; font-family: Avenir Next;" x="774" y="170">.</text>
	<text style="text-anchor: middle; fill: black; font-size: 14px; font-family: Avenir Next; font-style: italic;" x="18" y="195">She</text>
	<text style="text-anchor: middle; fill: black; font-size: 14px; font-family: Avenir Next; font-style: italic;" x="54" y="195">had</text>
	<text style="text-anchor: middle; fill: black; font-size: 14px; font-family: Avenir Next; font-style: italic;" x="90" y="195">a</text>
	<text style="text-anchor: middle; fill: black; font-size: 14px; font-family: Avenir Next; font-style: italic;" x="126" y="195">rather</text>
	<text style="text-anchor: middle; fill: black; font-size: 14px; font-family: Avenir Next; font-style: italic;" x="182" y="195">massive</text>
	<text style="text-anchor: middle; fill: black; font-size: 14px; font-family: Avenir Next; font-style: italic;" x="234" y="195">stroke</text>
	<text style="text-anchor: middle; fill: black; font-size: 14px; font-family: Avenir Next; font-style: italic;" x="282" y="195">about</text>
	<text style="text-anchor: middle; fill: black; font-size: 14px; font-family: Avenir Next; font-style: italic;" x="342" y="195">,</text>
	<text style="text-anchor: middle; fill: black; font-size: 14px; font-family: Avenir Next; font-style: italic;" x="378" y="195">uh</text>
	<text style="text-anchor: middle; fill: black; font-size: 14px; font-family: Avenir Next; font-style: italic;" x="414" y="195">,</text>
	<text style="text-anchor: middle; fill: black; font-size: 14px; font-family: Avenir Next; font-style: italic;" x="450" y="195">about</text>
	<text style="text-anchor: middle; fill: black; font-size: 14px; font-family: Avenir Next; font-style: italic;" x="486" y="195">uh</text>
	<text style="text-anchor: middle; fill: black; font-size: 14px; font-family: Avenir Next; font-style: italic;" x="522" y="195">,</text>
	<text style="text-anchor: middle; fill: black; font-size: 14px; font-family: Avenir Next; font-style: italic;" x="546" y="195">eight</text>
	<text style="text-anchor: middle; fill: black; font-size: 14px; font-family: Avenir Next; font-style: italic;" x="594" y="195">months</text>
	<text style="text-anchor: middle; fill: black; font-size: 14px; font-family: Avenir Next; font-style: italic;" x="636" y="195">ago</text>
	<text style="text-anchor: middle; fill: black; font-size: 14px; font-family: Avenir Next; font-style: italic;" x="666" y="195">I</text>
	<text style="text-anchor: middle; fill: black; font-size: 14px; font-family: Avenir Next; font-style: italic;" x="738" y="195">guess</text>
	<text style="text-anchor: middle; fill: black; font-size: 14px; font-family: Avenir Next; font-style: italic;" x="774" y="195">.</text>
</svg>
